<?xml version="1.0" standalone="no"?>
<!DOCTYPE svg PUBLIC "-//W3C//DTD SVG 20010904//EN"
 "http://www.w3.org/TR/2001/REC-SVG-20010904/DTD/svg10.dtd">
<svg version="1.0" xmlns="http://www.w3.org/2000/svg"
 width="512.000000pt" height="512.000000pt" viewBox="0 0 512.000000 512.000000"
 preserveAspectRatio="xMidYMid meet">

<g transform="translate(0.000000,512.000000) scale(0.100000,-0.100000)"
fill="#000000" stroke="none">
<path d="M830 5095 c-196 -37 -344 -112 -485 -246 -129 -123 -216 -265 -274
-447 -46 -145 -61 -255 -61 -437 1 -351 87 -704 280 -1141 201 -455 382 -709
588 -829 l82 -48 0 -61 c0 -181 160 -319 537 -467 l112 -44 7 -43 c9 -58 -1
-110 -26 -145 l-21 -28 38 -50 c33 -43 144 -129 167 -129 13 0 -2 111 -40 290
-108 505 -122 603 -104 744 25 199 107 319 208 302 l34 -5 -5 37 c-21 130 -29
250 -24 361 9 202 50 314 155 419 57 57 62 66 62 106 0 123 59 317 149 491 51
99 196 334 242 393 18 24 18 24 -69 134 -111 141 -318 357 -441 459 -232 194
-478 323 -716 374 -102 23 -304 28 -395 10z"/>
<path d="M3920 5095 c-435 -80 -882 -421 -1307 -1000 -108 -147 -236 -349
-295 -464 -86 -169 -139 -385 -124 -502 l7 -48 -49 -25 c-84 -43 -136 -118
-161 -234 -18 -84 -13 -278 11 -444 l21 -151 -24 -19 c-46 -36 -84 -51 -134
-52 -47 -1 -51 -3 -68 -37 -58 -120 -47 -283 49 -706 103 -458 101 -627 -12
-931 -43 -115 -83 -196 -135 -275 l-38 -57 22 -14 c58 -35 217 -126 221 -126
3 0 6 6 6 13 0 26 70 155 128 236 33 46 96 123 140 170 177 192 254 231 822
415 301 97 438 169 516 269 l37 47 -24 26 c-20 21 -24 38 -27 97 -1 40 1 77 5
83 4 6 58 30 118 53 369 142 546 297 533 470 l-4 57 65 36 c127 70 240 179
341 328 96 141 292 545 376 775 179 491 222 936 124 1285 -107 384 -389 656
-751 725 -99 18 -286 18 -389 0z"/>
<path d="M2972 676 l-224 -70 39 -30 c66 -51 219 -215 284 -305 34 -47 80
-125 103 -173 l42 -86 114 65 c63 36 116 67 118 68 2 2 -21 44 -52 95 -62 103
-122 248 -162 395 -15 55 -30 103 -33 106 -3 3 -107 -26 -229 -65z"/>
</g>
</svg>
